<svg xmlns="http://www.w3.org/2000/svg" xmlns:xlink="http://www.w3.org/1999/xlink" width="1000" zoomAndPan="magnify" viewBox="0 0 750 749.999995" height="1000" preserveAspectRatio="xMidYMid meet" version="1.0"><defs><clipPath id="6be25d5021"><path d="M 37.421875 84.683594 L 712.421875 84.683594 L 712.421875 665.183594 L 37.421875 665.183594 Z M 37.421875 84.683594 " clip-rule="nonzero"/></clipPath></defs><g clip-path="url(#6be25d5021)"><path fill="#3b82f6" d="M 662.480469 134.871094 C 595.632812 68.023438 486.382812 68.023438 419.707031 134.871094 L 375.082031 179.496094 L 330.460938 134.871094 C 263.613281 68.023438 154.363281 68.023438 87.6875 134.871094 C 22.890625 199.667969 21.007812 304.472656 81.871094 371.664062 L 238.992188 371.664062 L 261.902344 252.15625 C 262.929688 246.515625 267.714844 242.410156 273.527344 242.070312 C 279.339844 241.726562 284.46875 245.488281 286.007812 250.960938 L 341.914062 441.246094 L 372.347656 317.636719 C 373.714844 312.335938 378.332031 308.40625 383.800781 308.234375 C 389.273438 307.890625 394.230469 311.3125 396.113281 316.609375 L 419.875 384.144531 L 463.644531 250.617188 C 465.355469 245.488281 470.3125 241.898438 475.78125 242.070312 C 481.253906 242.238281 486.042969 245.832031 487.410156 251.128906 L 520.746094 371.664062 L 668.292969 371.664062 C 729.328125 304.472656 727.277344 199.667969 662.480469 134.871094 Z M 499.207031 387.390625 L 474.246094 297.460938 L 431.84375 426.714844 C 430.132812 431.84375 425.519531 435.261719 420.21875 435.261719 L 420.046875 435.261719 C 414.746094 435.261719 410.132812 432.015625 408.25 426.886719 L 386.195312 364.140625 L 354.738281 491.851562 C 353.371094 497.324219 348.582031 501.257812 342.941406 501.257812 L 342.597656 501.257812 C 337.128906 501.257812 332.171875 497.667969 330.632812 492.367188 L 276.433594 307.035156 L 261.21875 386.367188 C 260.023438 392.179688 254.890625 396.453125 249.078125 396.453125 L 106.152344 396.453125 L 132.136719 422.441406 L 374.910156 665.214844 L 617.6875 422.441406 L 643.671875 396.453125 L 511.003906 396.453125 C 505.53125 396.453125 500.746094 392.691406 499.207031 387.390625 Z M 499.207031 387.390625 " fill-opacity="1" fill-rule="nonzero"/></g></svg>